HIERARCHY
ROOT Hips
{
	OFFSET 0.00000 0.00000 0.00000
	CHANNELS 6 Xposition Yposition Zposition Zrotation Yrotation Xrotation 
	JOINT LHipJoint
	{
		OFFSET 0 0 0
		CHANNELS 3 Zrotation Yrotation Xrotation
		JOINT LeftUpLeg
		{
			OFFSET 1.53794 -1.55850 0.93568
			CHANNELS 3 Zrotation Yrotation Xrotation
			JOINT LeftLeg
			{
				OFFSET 2.28545 -6.27922 0.00000
				CHANNELS 3 Zrotation Yrotation Xrotation
				JOINT LeftFoot
				{
					OFFSET 2.37329 -6.52057 0.00000
					CHANNELS 3 Zrotation Yrotation Xrotation
					JOINT LeftToeBase
					{
						OFFSET 0.14846 -0.40788 2.09160
						CHANNELS 3 Zrotation Yrotation Xrotation
						End Site
						{
							OFFSET 0.00000 -0.00000 1.07536
						}
					}
				}
			}
		}
	}
	JOINT RHipJoint
	{
		OFFSET 0 0 0
		CHANNELS 3 Zrotation Yrotation Xrotation
		JOINT RightUpLeg
		{
			OFFSET -1.78290 -1.55850 0.93568
			CHANNELS 3 Zrotation Yrotation Xrotation
			JOINT RightLeg
			{
				OFFSET -2.24144 -6.15831 0.00000
				CHANNELS 3 Zrotation Yrotation Xrotation
				JOINT RightFoot
				{
					OFFSET -2.35091 -6.45907 0.00000
					CHANNELS 3 Zrotation Yrotation Xrotation
					JOINT RightToeBase
					{
						OFFSET -0.14428 -0.39641 2.07944
						CHANNELS 3 Zrotation Yrotation Xrotation
						End Site
						{
							OFFSET -0.00000 -0.00000 1.06864
						}
					}
				}
			}
		}
	}
	JOINT LowerBack
	{
		OFFSET 0 0 0
		CHANNELS 3 Zrotation Yrotation Xrotation
		JOINT Spine
		{
			OFFSET -0.08841 2.11430 -0.15818
			CHANNELS 3 Zrotation Yrotation Xrotation
			JOINT Spine1
			{
				OFFSET -0.00033 2.12605 -0.08097
				CHANNELS 3 Zrotation Yrotation Xrotation
				JOINT Neck
				{
					OFFSET 0 0 0
					CHANNELS 3 Zrotation Yrotation Xrotation
					JOINT Neck1
					{
						OFFSET 0.04431 1.59447 0.43193
						CHANNELS 3 Zrotation Yrotation Xrotation
						JOINT Head
						{
							OFFSET 0.00455 1.62017 -0.58852
							CHANNELS 3 Zrotation Yrotation Xrotation
							End Site
							{
								OFFSET -0.00920 1.72955 -0.25850
							}
						}
					}
				}
				JOINT LeftShoulder
				{
					OFFSET 0 0 0
					CHANNELS 3 Zrotation Yrotation Xrotation
					JOINT LeftArm
					{
						OFFSET 2.86490 1.49927 -0.33774
						CHANNELS 3 Zrotation Yrotation Xrotation
						JOINT LeftForeArm
						{
							OFFSET 4.87408 -0.00000 0.00000
							CHANNELS 3 Zrotation Yrotation Xrotation
							JOINT LeftHand
							{
								OFFSET 2.76729 -0.00000 0.00000
								CHANNELS 3 Zrotation Yrotation Xrotation
								JOINT LeftFingerBase
								{
									OFFSET 0 0 0
									CHANNELS 3 Zrotation Yrotation Xrotation
									JOINT LeftHandIndex1
									{
										OFFSET 0.98922 -0.00000 0.00000
										CHANNELS 3 Zrotation Yrotation Xrotation
										End Site
										{
											OFFSET 0.79753 -0.00000 0.00000
										}
									}
								}
								JOINT LThumb
								{
									OFFSET 0 0 0
									CHANNELS 3 Zrotation Yrotation Xrotation
									End Site
									{
										OFFSET 0.80972 -0.00000 0.80972
									}
								}
							}
						}
					}
				}
				JOINT RightShoulder
				{
					OFFSET 0 0 0
					CHANNELS 3 Zrotation Yrotation Xrotation
					JOINT RightArm
					{
						OFFSET -2.94414 1.45463 -0.25291
						CHANNELS 3 Zrotation Yrotation Xrotation
						JOINT RightForeArm
						{
							OFFSET -4.71404 -0.00000 0.00000
							CHANNELS 3 Zrotation Yrotation Xrotation
							JOINT RightHand
							{
								OFFSET -2.83468 -0.00000 0.00000
								CHANNELS 3 Zrotation Yrotation Xrotation
								JOINT RightFingerBase
								{
									OFFSET 0 0 0
									CHANNELS 3 Zrotation Yrotation Xrotation
									JOINT RightHandIndex1
									{
										OFFSET -0.86820 -0.00000 0.00000
										CHANNELS 3 Zrotation Yrotation Xrotation
										End Site
										{
											OFFSET -0.69996 -0.00000 0.00000
										}
									}
								}
								JOINT RThumb
								{
									OFFSET 0 0 0
									CHANNELS 3 Zrotation Yrotation Xrotation
									End Site
									{
										OFFSET -0.71065 -0.00000 0.71065
									}
								}
							}
						}
					}
				}
			}
		}
	}
}
MOTION
Frames: 5
Frame Time: .0083333
1.1935 15.8286 -8.5911 -186.4340 7.5183 -176.5640 0.0000 0.0000 0.0000 -31.5090 -7.2634 -11.9185 2.6842 10.1654 29.5139 -1.2373 19.2348 -6.8254 0.1650 -2.6170 -7.2142 0.0000 0.0000 0.0000 13.0411 7.7636 -19.1789 -15.2879 -19.4591 76.1023 1.2424 -19.9051 -2.1179 -0.8176 5.7698 -16.1178 -7.3137 1.1187 -4.0289 -3.8944 2.2766 1.0500 0.2215 1.1416 3.2479 3.9096 0.6941 -32.5637 -0.4196 1.7921 40.6513 -0.0657 2.1252 23.1566 0.0000 -0.0000 0.0000 -81.3280 13.7919 39.2835 48.3654 -52.3146 -24.8746 -0.0000 -0.0000 24.9376 12.2579 3.2545 0.7067 -7.1250 0.0000 -0.0000 -11.6449 33.1453 3.4442 0.0000 -0.0000 0.0000 92.4026 -12.6580 24.2723 -26.7505 37.9402 -9.3453 0.0000 0.0000 16.0471 -8.3041 -7.5924 1.1048 7.1250 -0.0000 -0.0000 15.6523 -37.2261 3.0865
1.1902 15.8560 -8.7839 -186.3390 6.8908 -176.4300 0.0000 0.0000 0.0000 -31.6124 -7.2922 -10.8580 2.5886 9.9973 28.9681 -1.2117 19.0448 -6.7620 0.1956 -2.8479 -7.8555 0.0000 0.0000 0.0000 13.1255 7.9712 -20.9096 -15.1922 -19.4365 75.8150 1.2864 -19.9121 -3.6752 -0.8740 5.9604 -16.6696 -7.3556 0.7324 -4.0098 -3.7178 1.7387 1.0162 0.3925 0.8669 3.2242 3.9881 0.7914 -32.4571 -0.5709 2.0402 40.7926 -0.0859 2.2179 23.2565 0.0000 -0.0000 0.0000 -81.8963 12.6696 39.6323 48.7346 -52.4722 -25.1671 -0.0000 -0.0000 25.2339 12.2991 3.0751 0.6701 -7.1250 0.0000 -0.0000 -11.5861 32.9671 3.4771 0.0000 -0.0000 0.0000 92.1252 -13.0314 22.3051 -24.9963 36.2002 -8.2877 0.0000 0.0000 16.7176 -7.7003 -7.7361 1.0427 7.1250 -0.0000 -0.0000 16.1822 -37.3259 3.1569
1.1878 15.8813 -8.9767 -186.1940 6.2640 -176.2480 0.0000 0.0000 0.0000 -31.6287 -7.2929 -9.9031 2.5104 9.8567 28.5140 -1.1798 18.8041 -6.6818 0.2322 -3.1013 -8.5608 0.0000 0.0000 0.0000 13.2564 8.2064 -22.5990 -15.0082 -19.3918 75.2614 1.3106 -19.8892 -5.1191 -0.9287 6.1391 -17.1887 -7.3690 0.3642 -4.0369 -3.5207 1.2257 0.9819 0.5711 0.6033 3.2285 4.0659 0.8774 -32.4011 -0.7191 2.2543 40.9137 -0.1152 2.2953 23.3578 0.0000 0.0000 0.0000 -82.3979 11.5291 40.1235 49.1889 -52.6631 -25.5279 -0.0000 -0.0000 25.3398 12.3369 2.9402 0.6427 -7.1250 0.0000 -0.0000 -11.5367 32.8331 3.4999 0.0000 0.0000 0.0000 91.8210 -13.4227 20.2051 -23.4017 34.5252 -7.3647 0.0000 0.0000 17.5898 -7.1226 -7.8983 0.9837 7.1250 -0.0000 -0.0000 16.6955 -37.4440 3.2138
1.1871 15.9048 -9.1695 -186.0390 5.6476 -176.0470 0.0000 0.0000 0.0000 -31.5948 -7.2557 -9.0333 2.4460 9.7390 28.1356 -1.1404 18.5016 -6.6169 0.2709 -3.3480 -9.2490 0.0000 0.0000 0.0000 13.3887 8.4695 -24.2271 -14.7420 -19.3238 74.4584 1.3184 -19.8437 -6.4370 -0.9768 6.2917 -17.6332 -7.3998 0.0129 -4.0822 -3.3156 0.7381 0.9464 0.7683 0.3517 3.2438 4.1082 0.9315 -32.3495 -0.8344 2.4207 41.0308 -0.1339 2.3545 23.4547 0.0000 -0.0000 0.0000 -82.8248 10.3802 40.7504 49.7120 -52.8787 -25.9443 -0.0000 -0.0000 25.2504 12.3972 2.8373 0.6234 -7.1250 0.0000 -0.0000 -11.4741 32.7318 3.5088 0.0000 -0.0000 0.0000 91.5002 -13.8351 17.9799 -21.9423 32.9117 -6.5544 0.0000 0.0000 18.6157 -6.6041 -8.0191 0.9253 7.1250 -0.0000 -0.0000 17.1508 -37.5253 3.2724
1.1884 15.9266 -9.3632 -185.9030 5.0565 -175.8380 0.0000 0.0000 0.0000 -31.5411 -7.1571 -8.2302 2.3895 9.6342 27.8001 -1.0917 18.1191 -6.5849 0.3096 -3.5770 -9.8895 0.0000 0.0000 0.0000 13.4842 8.7717 -25.7791 -14.4005 -19.2310 73.4240 1.3141 -19.7873 -7.6514 -1.0133 6.4045 -17.9627 -7.4730 -0.3193 -4.1367 -3.1188 0.2816 0.9058 0.9816 0.1159 3.2611 4.1384 0.9684 -32.3173 -0.9237 2.5443 41.1322 -0.1491 2.3983 23.5431 0.0000 -0.0000 0.0000 -83.1643 9.2307 41.4967 50.2970 -53.1146 -26.4115 -0.0000 -0.0000 25.0550 12.4704 2.7771 0.6139 -7.1250 0.0000 -0.0000 -11.4074 32.6738 3.5040 0.0000 -0.0000 0.0000 91.1776 -14.2580 15.6227 -20.5789 31.3335 -5.8294 0.0000 0.0000 19.8074 -6.1886 -8.0621 0.8712 7.1250 -0.0000 -0.0000 17.5027 -37.5382 3.3389
